<svg width="32" height="32" viewBox="0 0 32 32" fill="none" xmlns="http://www.w3.org/2000/svg">
<path d="M0 8C0 3.58172 3.58172 0 8 0H24C28.4183 0 32 3.58172 32 8V24C32 28.4183 28.4183 32 24 32H8C3.58172 32 0 28.4183 0 24V8Z" fill="#61B4D1"/>
<path d="M16 9.64706C16 12.6359 13.5771 15.0588 10.5882 15.0588C7.5994 15.0588 5.17647 12.6359 5.17647 9.64706C5.17647 6.65822 7.5994 4.23529 10.5882 4.23529C13.5771 4.23529 16 6.65822 16 9.64706Z" fill="#FF6D46"/>
<path d="M5.17647 23.5294C5.17647 21.4502 6.86199 19.7647 8.94118 19.7647H24C26.0792 19.7647 27.7647 21.4502 27.7647 23.5294C27.7647 25.6086 26.0792 27.2941 24 27.2941H8.94118C6.86199 27.2941 5.17647 25.6086 5.17647 23.5294Z" fill="#0098C5"/>
</svg>
